<?xml version="1.0" encoding="UTF-8" standalone="no"?>
<svg
   xmlns:dc="http://purl.org/dc/elements/1.1/"
   xmlns:cc="http://creativecommons.org/ns#"
   xmlns:rdf="http://www.w3.org/1999/02/22-rdf-syntax-ns#"
   xmlns:svg="http://www.w3.org/2000/svg"
   xmlns="http://www.w3.org/2000/svg"
   xmlns:sodipodi="http://sodipodi.sourceforge.net/DTD/sodipodi-0.dtd"
   xmlns:inkscape="http://www.inkscape.org/namespaces/inkscape"
   version="1.1"
   id="svg885"
   xml:space="preserve"
   width="666.66669"
   height="666.66669"
   viewBox="0 0 666.66669 666.66669"
   sodipodi:docname="fox_dub.svg"
   inkscape:version="1.0.1 (c497b03c, 2020-09-10)"><metadata
     id="metadata891"><rdf:RDF><cc:Work
         rdf:about=""><dc:format>image/svg+xml</dc:format><dc:type
           rdf:resource="http://purl.org/dc/dcmitype/StillImage" /><dc:title></dc:title></cc:Work></rdf:RDF></metadata><defs
     id="defs889" /><sodipodi:namedview
     pagecolor="#ffffff"
     bordercolor="#666666"
     borderopacity="1"
     objecttolerance="10"
     gridtolerance="10"
     guidetolerance="10"
     inkscape:pageopacity="0"
     inkscape:pageshadow="2"
     inkscape:window-width="1792"
     inkscape:window-height="981"
     id="namedview887"
     showgrid="false"
     inkscape:zoom="1.068"
     inkscape:cx="333.33334"
     inkscape:cy="333.33334"
     inkscape:window-x="0"
     inkscape:window-y="25"
     inkscape:window-maximized="1"
     inkscape:current-layer="g895" /><g
     id="g893"
     inkscape:groupmode="layer"
     inkscape:label="ink_ext_XXXXXX"
     transform="matrix(1.3333333,0,0,-1.3333333,0,666.66667)"><g
       id="g895"
       transform="scale(0.1)"><path
         d="m 4703.5866,327.68498 c 0,55.91949 -855.3452,101.26461 -1910.4585,101.26461 -1055.1251,0 -1910.47041,-45.34512 -1910.47041,-101.26461 0,-55.9183 855.34531,-101.26343 1910.47041,-101.26343 1055.1133,0 1910.4585,45.34513 1910.4585,101.26343"
         style="fill:#647886;fill-opacity:1;fill-rule:nonzero;stroke:none;stroke-width:1.17899"
         id="path899" /><path
         d="m 4621.2106,529.72964 c -124.0533,356.10091 -337.6626,703.16016 -623.2022,954.36746 -14.7963,12.9454 -29.7223,25.7138 -44.9077,38.1993 -206.5,169.8453 -452.7085,287.2491 -712.7465,348.0024 -123.8764,28.9442 -252.9404,46.8413 -380.0591,53.1371 -100.7211,4.9517 -200.8291,-5.671 -300.831,-16.2936 -100.3438,-10.6699 -200.5816,-21.328 -301.1965,-16.2465 -86.6912,4.3858 -174.2429,16.6709 -260.9223,24.6291 -48.8809,4.4448 -93.5646,11.2122 -138.1894,36.9967 -31.8563,18.4865 -61.4961,40.6987 -95.9226,52.1821 -4.657,1.568 -8.4415,-0.3302 -10.8703,-3.7139 -0.4715,2.7117 -0.9431,5.4705 -1.4147,8.1704 -1.1555,6.5434 -9.3848,3.7139 -8.3709,-2.7824 33.8842,-210.3318 67.0963,-421.7718 152.9622,-611.259 5.8831,-12.9689 12.0139,-25.7963 18.3686,-38.553 86.0073,-171.8024 196.3018,-313.1632 336.1772,-424.29485 218.2663,-173.4766 470.6055,-250.7829 733.4141,-261.1132 127.6493,-5.0567 257.739,5.7558 387.5575,29.029 162.5474,29.1683 326.8042,49.1521 491.851,56.568 152.2312,6.8263 324.3165,19.1821 468.3065,-40.0267 65.2689,-26.8692 124.2655,-70.6781 180.1025,-119.47767 30.3826,-26.54142 59.8101,-54.55186 88.8369,-82.16498 8.5241,-8.02774 26.4683,-0.9538 21.0567,14.64424"
         style="fill:#c24e1f;fill-opacity:1;fill-rule:nonzero;stroke:none;stroke-width:1.17899"
         id="path901" /><path
         d="m 4621.2106,529.72964 c -124.0533,356.10091 -337.6626,703.16016 -623.2022,954.36746 7.8167,-70.8219 31.8563,-142.5045 41.7716,-212.4539 -39.8262,65.3396 -73.7811,134.0629 -120.7639,195.2407 -44.5658,57.912 -113.8904,128.2505 -192.8827,91.8787 -4.657,-2.1812 -5.5413,-7.6281 -4.8457,-12.0257 12.0847,-81.0792 37.6688,-169.8453 82.1638,-243.3553 -47.0652,32.5991 -98.3749,61.0127 -146.0296,87.8229 -42.927,24.2283 -87.4929,46.7824 -134.3341,62.3686 -26.4094,8.7835 -65.0803,19.4415 -89.9216,1.0139 -69.2067,-51.4511 25.4544,-154.8603 62.0267,-192.3286 56.509,-57.7823 125.0318,-114.6921 196.797,-155.1904 -79.6644,-18.852 -168.4305,-11.7545 -248.7079,-6.2251 -65.8938,4.5392 -141.9032,38.4823 -202.857,-1.8156 -4.2444,-2.8414 -6.6142,-8.7717 -3.5016,-13.4994 47.4661,-72.3664 148.5173,-102.20675 227.1441,-124.07695 75.6912,-21.0804 155.7564,-36.4544 234.9963,-41.2647 -67.2967,-23.8863 -140.1229,-32.0567 -210.4851,-41.1703 -69.1831,-9.0428 -136.9042,-23.9571 -205.7572,-34.3557 -114.1498,-17.1426 -271.6511,-18.8285 -355.1589,-111.4617 -2.9003,-3.1597 -4.3859,-8.5713 -1.6035,-12.4148 15.1736,-21.2572 35.0868,-37.1971 57.4404,-49.626 127.6493,-5.0567 257.739,5.7558 387.5575,29.029 162.5474,29.1683 326.8042,49.1521 491.851,56.568 152.2312,6.8263 324.3165,19.1821 468.3065,-40.0267 100.7683,-41.4533 186.6695,-123.39192 268.9394,-201.64265 8.5241,-8.02774 26.4683,-0.9538 21.0567,14.64424"
         style="fill:#ffffff;fill-opacity:1;fill-rule:nonzero;stroke:none;stroke-width:1.17899"
         id="path903" /><path
         d="m 3045.8563,669.93275 v 0 c 0.035,0 0.059,0 0.082,0 -0.024,0 -0.047,0 -0.082,0 m -0.012,0 c -20.0782,0 -40.1092,0.3784 -60.0813,1.1471 19.9603,-0.7687 40.0031,-1.1471 60.0813,-1.1471 m 1285.37,46.7953 v 0 c -89.5796,36.8316 -190.0295,45.9688 -289.7957,45.9806 99.7779,-0.012 200.2161,-9.149 289.7957,-45.9806 v 0 m -466.2433,40.121 c 0.3066,0.012 0.6013,0.024 0.9079,0.047 -0.3066,-0.024 -0.6013,-0.035 -0.9079,-0.047 m 176.3415,5.8596 c 0.012,0 0.035,0 0.047,0 v 0 c -0.012,0 -0.035,0 -0.047,0"
         style="fill:#7c9098;fill-opacity:1;fill-rule:nonzero;stroke:none;stroke-width:1.17899"
         id="path905" /><path
         d="m 4511.317,597.25038 c -55.7191,48.69347 -114.5978,92.43157 -179.7016,119.31257 65.0802,-26.8574 123.9708,-70.5873 179.678,-119.27602 0.012,-0.0141 0.012,-0.0271 0.024,-0.0366 m -1527.8175,73.90742 c -32.4693,1.2898 -64.7619,3.5747 -96.8658,6.9584 -7.6988,32.2217 -14.1007,64.7619 -19.4415,97.4788 -12.2969,74.7008 -25.195,149.0951 -40.6987,223.0649 145.2987,-32.8702 295.7024,-52.2882 448.1929,-52.2882 66.9313,0 134.1808,3.7374 201.6426,11.7192 72.0481,-19.3473 147.751,-33.3537 222.7348,-37.9046 -67.2967,-23.8863 -140.1229,-32.0567 -210.4851,-41.1703 -69.1831,-9.0428 -136.9042,-23.9571 -205.7572,-34.3557 -114.1498,-17.1426 -271.6511,-18.8285 -355.1589,-111.4617 -2.9003,-3.1597 -4.3859,-8.5713 -1.6035,-12.4148 15.1736,-21.2572 35.0868,-37.1971 57.4404,-49.626 m -652.8656,202.4113 c -27.3171,18.1918 -54.1863,37.7512 -80.5485,58.7019 -139.8754,111.13165 -250.1699,252.49245 -336.1772,424.29485 -3.3719,6.7673 -6.6848,13.5583 -9.9271,20.3848 6.3902,0.5305 12.9453,0.8252 19.7127,0.896 59.4447,-36.1243 122.9687,-72.4726 189.9942,-107.9012 49.046,-63.9366 91.5604,-133.2258 129.123,-204.2011 v 0 c 7.0621,-13.405 13.9357,-26.9045 20.6441,-40.4864 6.7438,-13.6764 13.299,-27.42335 19.7127,-41.26465 3.8671,-8.3709 7.6752,-16.7653 11.4244,-25.1833 10.8585,-24.2871 21.2454,-48.7748 31.255,-73.3921 1.6035,-3.9496 3.1951,-7.8874 4.7867,-11.8488"
         style="fill:#b3461f;fill-opacity:1;fill-rule:nonzero;stroke:none;stroke-width:1.17899"
         id="path907" /><path
         d="m 4511.2934,597.28693 c -55.7072,48.68872 -114.5978,92.41862 -179.678,119.27602 v 0 c -0.1415,0.047 -0.2712,0.1061 -0.4009,0.1651 v 0 c -89.5796,36.8316 -190.0178,45.9688 -289.7957,45.9806 -0.024,0 -0.047,0 -0.059,0 v 0 0 c -0.012,0 -0.035,0 -0.047,0 -59.5272,0 -118.8304,-3.254 -175.4336,-5.8124 -0.3066,-0.024 -0.6013,-0.035 -0.9079,-0.047 -0.6956,-0.035 -1.3794,-0.059 -2.0632,-0.094 v 0 c -165.0468,-7.4159 -329.3036,-27.3997 -491.851,-56.568 v 0 c -108.7028,-19.4887 -217.6179,-30.2399 -325.1182,-30.254 -0.024,0 -0.047,0 -0.082,0 0,0 0,0 -0.012,0 -20.0782,0 -40.121,0.3784 -60.0813,1.1471 -0.7664,0.024 -1.5091,0.056 -2.2637,0.078 v 0 0 c -22.3536,12.4289 -42.2668,28.3688 -57.4404,49.626 -2.7824,3.8435 -1.2968,9.2551 1.6035,12.4148 83.5078,92.6332 241.0091,94.3191 355.1589,111.4617 68.853,10.3986 136.5741,25.3129 205.7572,34.3557 70.3622,9.1136 143.1884,17.284 210.4851,41.1703 -74.9838,4.5509 -150.6867,18.5573 -222.7348,37.9046 85.017,10.0567 170.2344,26.8691 255.1452,51.42755 0,0 22.3065,2.1575 59.4093,2.1575 123.6878,0 412.1041,-23.95705 588.6696,-231.69505 52.7008,-62.0149 96.1112,-123.9838 131.7403,-182.69392"
         style="fill:#f0e8e2;fill-opacity:1;fill-rule:nonzero;stroke:none;stroke-width:1.17899"
         id="path909" /><path
         d="m 2667.2945,1189.0785 c -37.1972,70.48 -56.9806,147.5742 -73.5218,225.1399 -16.6827,77.8251 18.1682,85.1231 0.8842,162.7596 -40.7223,182.6844 -139.616,434.8114 -166.5323,620.1957 -27.4233,188.2847 -17.8381,384.1149 31.2432,567.8722 22.4716,84.0384 73.9109,164.0329 86.8091,250.3114 51.1799,343.4161 -293.4506,212.5836 -358.13,276.7089 -57.5818,57.122 -110.7661,118.4177 -168.8313,175.0446 -51.4983,50.2957 -114.5624,105.72 -189.0156,114.6331 -159.6588,19.1115 -264.3649,-150.8045 -353.0721,-254.9683 -58.867,-69.2067 -132.6482,-130.0308 -203.3286,-186.7991 -76.2217,-61.225 -164.7874,-98.8347 -245.6661,-152.4316 -35.69981,-23.6977 -68.65261,-51.1682 -99.29451,-81.0791 -30.1821,-29.4276 -61.3664,-61.3547 -75.7383,-101.6525 -24.0986,-67.7802 35.4994,-130.5024 80.3953,-172.0146 31.9388,-29.5102 66.96661,-55.2239 98.96441,-84.6043 37.7395,-34.627 74.2646,-70.4683 109.422,-107.7361 70.822,-74.9366 130.9033,-156.9471 186.4691,-243.6147 23.6269,-36.9377 44.8252,-75.6204 62.7104,-115.7178 23.7567,-53.538 32.3987,-108.0191 34.627,-166.2022 4.1264,-107.1348 -22,-211.0274 -44.4126,-314.8374 -19.8542,-91.6311 -34.6977,-178.5109 -6.0128,-270.0594 14.0417,-44.613 31.255,-86.9505 53.7383,-128.1916 26.1264,-47.7255 90.4639,-148.93 153.4455,-91.0062 8.9722,8.2529 3.7846,19.642 -4.7867,23.6387 46.1693,33.3419 82.0106,72.838 116.0952,110.1648 86.0191,94.1777 161.215,174.856 364.2135,109.6343 36.4543,-11.7427 97.4789,4.7277 148.9889,8.7835 27.5412,2.1575 52.4415,0.7899 69.3364,-10.3987 46.3697,-30.7009 82.6826,-76.6933 125.8807,-111.8626 73.852,-60.0813 161.557,-97.1369 256.8783,-71.9655 8.9132,2.3698 12.2733,12.4973 8.2412,20.255"
         style="fill:#d8571e;fill-opacity:1;fill-rule:nonzero;stroke:none;stroke-width:1.17899"
         id="path911" /><path
         d="m 1920.8643,1715.7804 c -4.657,75.2667 -50.3665,141.6203 -114.362,179.8313 -54.6816,32.6698 -161.4745,79.9237 -223.2535,39.6848 -47.9967,-31.2432 -78.509,-56.0256 -107.6064,-107.123 -19.5359,-34.3204 -11.6367,5.7771 -4.8103,45.8863 6.732,39.5669 12.4265,79.1338 -10.3044,47.2067 -53.196,-74.6536 -208.6694,-442.2508 -259.979,-518.2485 -54.3397,-80.5486 -105.9205,-168.1593 -124.0062,-264.8365 -17.2132,-91.6782 10.1983,-189.77015 45.6269,-273.87935 2.4995,-5.8831 5.0107,-11.7427 7.4984,-17.6259 25.926,-60.8123 53.5379,-121.9783 83.5786,-181.3298 4.657,-36.1113 11.613,-71.61064 11.8253,-108.06618 0.1179,-17.76856 -1.3559,-35.71042 -5.5531,-54.0779 -8.9131,-38.87365 -32.7405,-89.57021 -15.0439,-129.15008 22.613,-50.28156 94.4371,-50.56215 140.8893,-49.25465 32.1982,0.87009 64.3964,1.07288 96.2527,2.82839 40.7813,2.35798 81.1499,7.48777 120.7757,20.25387 64.479,20.78912 93.7651,79.4533 112.3342,141.43279 10.4576,35.15747 14.926,72.96885 13.7706,110.83918 -1.3559,46.57008 -11.0707,93.27928 -28.0836,135.14528 -23.6269,58.1359 -59.2088,113.0651 -72.2367,171.1893 -8.4297,37.5272 -7.4866,76.3514 12.0257,118.21735 31.7974,68.4403 89.1081,121.9783 128.4038,185.8441 41.9838,68.3814 80.6665,140.9601 115.2934,214.0692 7.8285,16.5412 15.5273,33.1296 22.9549,49.7534 34.2969,76.4103 59.2679,156.7467 54.0096,241.4099"
         style="fill:#d8571e;fill-opacity:1;fill-rule:nonzero;stroke:none;stroke-width:1.17899"
         id="path913" /><path
         d="m 2966.7579,369.48017 c -38.3526,-32.40925 -97.6911,-39.42306 -145.959,-41.25167 -2.0278,-0.0601 -4.1146,-0.12851 -6.1307,-0.12851 -69.3364,-1.70011 -150.274,14.70907 -210.0252,49.60953 -54.6816,31.79617 -95.9934,81.75115 -128.2623,136.29357 -10.7996,18.15409 -20.5262,36.86583 -29.4394,55.56343 -37.5273,78.70703 -62.3096,162.41763 -92.9634,243.83863 -18.4158,48.9281 -37.987,97.5379 -59.3857,145.4048 -16.0696,36.1243 -33.2946,71.83595 -51.7812,106.93445 -56.0374,105.8615 -123.0747,207.9974 -206.3822,294.1815 l -0.3301,0.9079 c -12.4973,32.658 -20.6677,67.226 -24.9828,102.6074 -2.1575,16.6592 -3.3719,33.6013 -3.7727,50.5669 -0.2712,10.1157 -0.2123,20.2315 0.071,30.3708 10.0568,77.3535 26.657,153.9171 50.2839,228.3703 5.3998,12.7567 11.1297,25.3837 17.2133,37.4683 35.9709,71.4822 92.0791,138.1894 169.1143,166.1904 46.4286,16.8831 114.1497,30.7952 158.2204,15.7277 110.7307,-92.3385 165.931,-240.3724 216.8516,-373.1031 32.9292,-85.7833 60.883,-173.7005 99.3652,-257.3381 41.3118,-89.7683 67.5797,-189.3575 90.5229,-285.1504 3.3011,-13.8414 6.5434,-27.6591 9.6559,-41.5123 19.1114,-85.93655 34.2379,-172.47445 48.5508,-259.43675 7.9464,-48.5979 18.2154,-96.795 31.5733,-144.1998 5.9421,-21.0603 15.9989,-39.95719 27.6827,-58.04289 13.4405,-21.12868 28.8853,-40.9699 42.4083,-61.85098 29.4158,-45.49604 44.6837,-102.32335 -2.0986,-142.02111"
         style="fill:#d8571e;fill-opacity:1;fill-rule:nonzero;stroke:none;stroke-width:1.17899"
         id="path915" /><path
         d="m 2150.9205,2197.044 c -46.9827,167.3576 -136.7746,346.7763 -287.697,443.6657 -40.6988,26.15 -106.2624,52.2528 -155.7682,47.7609 -93.1048,-8.4534 -162.4412,-96.0877 -201.0413,-173.7478 -33.2947,-66.9902 -24.747,-138.7435 -8.4652,-209.1645 9.5263,-41.2057 21.2337,-81.7748 28.791,-123.4285 8.2293,-45.3793 3.0182,-88.2827 -5.3644,-133.1315 -13.3816,-71.659 -30.8896,-142.9761 -19.7009,-216.1678 10.9056,-71.376 61.614,-125.6095 120.7875,-162.4648 114.138,-71.093 251.5138,-66.3653 358.4836,14.6902 210.4614,159.4348 220.4829,332.0625 169.9749,511.9881"
         style="fill:#ffffff;fill-opacity:1;fill-rule:nonzero;stroke:none;stroke-width:1.17899"
         id="path917" /><path
         d="m 1660.4136,735.29715 c -0.035,0.094 -0.071,0.1886 -0.1061,0.2829 0.035,-0.094 0.071,-0.1886 0.1061,-0.2829 m -0.2004,0.4951 c -0.012,0.035 -0.024,0.071 -0.035,0.094 0.012,-0.035 0.024,-0.059 0.035,-0.094 m -0.1297,0.3302 c 0,0.012 -0.012,0.023 -0.012,0.035 0,-0.012 0,-0.024 0.012,-0.035 m -2.4405,5.8595 c 0,0.012 -0.012,0.024 -0.012,0.035 0,-0.012 0.012,-0.024 0.012,-0.035 m -0.1061,0.2476 c -0.012,0.035 -0.024,0.071 -0.047,0.1061 0.024,-0.035 0.035,-0.071 0.047,-0.1061 m -0.1179,0.283 c -0.024,0.047 -0.047,0.1061 -0.071,0.165 0.024,-0.047 0.047,-0.1179 0.071,-0.165 m -0.1297,0.2947 c -23.5326,55.3654 -56.6387,108.0662 -69.1124,163.6792 -8.4297,37.5272 -7.4866,76.3514 12.0257,118.21735 31.7974,68.4403 89.1081,121.9783 128.4038,185.8441 13.0514,21.269 25.7845,42.9388 38.1875,64.9152 -12.3912,-21.9764 -25.1361,-43.6462 -38.1875,-64.9152 -39.2957,-63.8658 -96.6064,-117.4038 -128.4038,-185.8441 -48.4565,-103.99875 17.6849,-189.18075 57.0867,-281.89655 m 147.1379,602.19265 v 0 c 28.4373,17.0954 60.5765,28.7556 99.5421,31.986 0,-0.012 0.012,-0.024 0.012,-0.035 -38.9656,-3.2187 -71.1048,-14.8671 -99.5539,-31.9507"
         style="fill:#7c9098;fill-opacity:1;fill-rule:nonzero;stroke:none;stroke-width:1.17899"
         id="path919" /><path
         d="m 2113.688,1269.9454 v 0 c -24.1103,31.4319 -49.8005,61.5787 -77.2592,89.9805 l -0.3301,0.9079 c -41.8187,11.7781 -77.9312,17.0246 -109.7168,17.0246 -0.896,0 -1.8038,-0.012 -2.6881,-0.012 -0.035,0.012 -0.047,0.024 -0.071,0.035 0.9314,0.012 1.8746,0.012 2.8178,0.012 31.762,0 67.8508,-5.2229 109.6342,-17.0128 0,-0.024 0.012,-0.035 0.024,-0.047 l 0.3301,-0.9079 c 27.4587,-28.4018 53.1489,-58.5486 77.2592,-89.9805"
         style="fill:#b3461f;fill-opacity:1;fill-rule:nonzero;stroke:none;stroke-width:1.17899"
         id="path921" /><path
         d="m 1903.9811,1376.9506 c 0,0.012 -0.012,0.024 -0.012,0.035 6.3548,0.5306 12.91,0.8371 19.6538,0.8961 0.024,-0.012 0.035,-0.024 0.071,-0.035 -6.7674,-0.071 -13.3225,-0.3655 -19.7127,-0.896"
         style="fill:#a53e1f;fill-opacity:1;fill-rule:nonzero;stroke:none;stroke-width:1.17899"
         id="path923" /><path
         d="m 1804.4272,1344.9999 c 13.6763,26.3505 26.8456,52.9485 39.4726,79.6172 7.8285,16.5412 15.5273,33.1296 22.9549,49.7534 5.8007,12.9217 11.3301,25.9495 16.4941,39.0953 21.1982,5.164 42.7973,8.0053 64.5379,8.0053 19.7717,0 39.6494,-2.3462 59.4565,-7.463 v 0 c 0.4008,-16.9656 1.6152,-33.9077 3.7727,-50.5669 4.3151,-35.3697 12.4855,-69.9141 24.9592,-102.5603 -41.7834,11.7899 -77.8722,17.0128 -109.6342,17.0128 -0.9432,0 -1.8864,0 -2.8178,-0.012 -6.7438,-0.059 -13.299,-0.3655 -19.6538,-0.8961 v 0 c -38.9656,-3.2304 -71.1048,-14.8906 -99.5421,-31.986"
         style="fill:#c94e1f;fill-opacity:1;fill-rule:nonzero;stroke:none;stroke-width:1.17899"
         id="path925" /><path
         d="m 1441.6167,327.62603 c 27.1404,93.69196 67.3203,268.38523 39.225,408.95622 -20.8563,104.2227 -76.9527,240.3842 -44.613,340.43335 17.0718,52.7951 148.034,178.6994 176.1883,226.6254 47.301,80.4307 152.8796,181.0456 270.9318,209.8248 -5.164,-13.1458 -10.6934,-26.1736 -16.4941,-39.0953 -7.4276,-16.6238 -15.1264,-33.2122 -22.9549,-49.7534 -12.627,-26.6687 -25.7963,-53.2667 -39.4726,-79.6172 v 0 c -0.035,-0.012 -0.059,-0.035 -0.082,-0.047 -12.12,-23.4148 -24.6527,-46.6173 -37.5508,-69.4897 -12.403,-21.9764 -25.1361,-43.6462 -38.1875,-64.9152 -39.2957,-63.8658 -96.6064,-117.4038 -128.4038,-185.8441 -19.5123,-41.86595 -20.4554,-80.69015 -12.0257,-118.21735 12.4737,-55.613 45.5798,-108.3138 69.1124,-163.6792 0.024,-0.047 0.035,-0.083 0.059,-0.1297 0.024,-0.059 0.047,-0.1179 0.071,-0.165 0.024,-0.059 0.047,-0.1179 0.071,-0.1769 0.024,-0.035 0.035,-0.071 0.047,-0.1061 0.035,-0.071 0.059,-0.1415 0.094,-0.2122 0,-0.012 0.012,-0.024 0.012,-0.035 0.8253,-1.9453 1.627,-3.8906 2.4287,-5.8242 0,-0.012 0.012,-0.024 0.012,-0.035 0.024,-0.071 0.059,-0.1651 0.094,-0.2358 0.012,-0.024 0.024,-0.059 0.035,-0.094 0.035,-0.071 0.059,-0.1414 0.094,-0.2122 0.035,-0.094 0.071,-0.1886 0.1061,-0.2829 v 0 c 17.0129,-41.866 26.7277,-88.5752 28.0836,-135.14528 0.1179,-3.84586 0.1768,-7.69173 0.1768,-11.53169 0.012,-33.99264 -4.5509,-67.72354 -13.9474,-99.30749 -18.5691,-61.97949 -47.8552,-120.64367 -112.3342,-141.43279 -39.6258,-12.7661 -79.9944,-17.89589 -120.7757,-20.25387"
         style="fill:#c94e1f;fill-opacity:1;fill-rule:nonzero;stroke:none;stroke-width:1.17899"
         id="path927" /><path
         d="m 2540.8242,428.07478 c -24.9238,25.51334 -46.1338,54.98808 -64.4435,85.92831 -10.7996,18.15409 -20.5262,36.86583 -29.4394,55.56343 -37.5273,78.70703 -62.3096,162.41763 -92.9634,243.83863 -7.5691,20.1254 -15.3504,40.1918 -23.344,60.1639 v -0.012 c 8.0054,-19.9721 15.7749,-40.0385 23.344,-60.1521 30.6538,-81.421 55.4361,-165.1316 92.9634,-243.83863 8.9132,-18.6976 18.6398,-37.40934 29.4394,-55.56343 18.3097,-30.94023 39.5197,-60.41497 64.4435,-85.92831 v 0"
         style="fill:#7c9098;fill-opacity:1;fill-rule:nonzero;stroke:none;stroke-width:1.17899"
         id="path929" /><path
         d="m 2330.6339,873.55725 v 0.012 c -1.5916,3.9614 -3.1832,7.8992 -4.7867,11.8488 1.6035,-3.9496 3.1951,-7.8992 4.7867,-11.8606 m -47.4661,110.436 c -6.4137,13.8413 -12.9689,27.58835 -19.7127,41.26465 6.7438,-13.6763 13.3226,-27.43515 19.7127,-41.26465"
         style="fill:#a53e1f;fill-opacity:1;fill-rule:nonzero;stroke:none;stroke-width:1.17899"
         id="path931" /><path
         d="m 2804.8708,327.97973 c -67.0609,0 -143.2708,16.45987 -200.2278,49.72979 -23.6624,13.76117 -44.8134,30.91193 -63.8188,50.36526 -24.9238,25.51334 -46.1338,54.98808 -64.4435,85.92831 -10.7996,18.15409 -20.5262,36.86583 -29.4394,55.56343 -37.5273,78.70703 -62.3096,162.41763 -92.9634,243.83863 -7.5691,20.1136 -15.3386,40.18 -23.344,60.1521 v 0 c -1.5916,3.9614 -3.1832,7.911 -4.7867,11.8606 -13.4758,33.1768 -27.6355,66.0942 -42.6794,98.5754 -6.3901,13.8295 -12.9689,27.58835 -19.7127,41.26465 -6.7084,13.582 -13.582,27.0932 -20.6441,40.4865 v 0 c -37.5626,70.9752 -80.077,140.2644 -129.123,204.201 -24.1103,31.4319 -49.8005,61.5787 -77.2592,89.9805 l -0.3301,0.9079 c -0.012,0.012 -0.024,0.024 -0.024,0.047 -12.4737,32.6462 -20.6441,67.1906 -24.9592,102.5603 -2.1575,16.6592 -3.3719,33.6013 -3.7727,50.5669 65.54,-16.8949 130.1604,-64.0073 186.5869,-155.8978 8.8424,-14.3837 20.8563,-26.7867 30.2411,-41.2411 35.912,-55.2238 80.1359,-104.6353 114.8925,-160.8024 166.6031,-269.22235 286.5653,-573.33332 475.6045,-827.96681 -3.2422,-0.0825 -6.508,-0.12026 -9.7974,-0.12026"
         style="fill:#c94e1f;fill-opacity:1;fill-rule:nonzero;stroke:none;stroke-width:1.17899"
         id="path933" /><path
         d="m 1674.7266,489.31269 c -18.5691,-61.97949 -47.8552,-120.64367 -112.3342,-141.43279 -39.6258,-12.7661 -79.9944,-17.89589 -120.7757,-20.25387 -28.001,-1.55744 -56.226,-1.89817 -84.51,-2.5702 -3.9142,-0.0696 -7.8285,-0.14265 -11.7427,-0.25819 -4.657,-0.15209 -9.5852,-0.28532 -14.7256,-0.28532 -24.1693,-0.2582 -52.3825,0.94437 -76.6815,8.91552 -10.4694,3.44029 -20.255,8.08787 -28.5551,14.45206 -8.7835,6.74736 -16.0107,15.24433 -20.9389,26.17239 -17.6848,39.57987 6.1426,90.26699 15.0557,129.15008 4.1972,18.36748 5.671,36.30934 5.5531,54.0779 -0.2123,36.45554 -7.1683,71.95488 -11.8253,108.06618 -30.0407,59.3515 -57.6526,120.5175 -83.5786,181.3298 103.6332,54.4811 292.5899,128.8047 458.5091,59.8102 13.0279,-58.1242 48.6098,-113.0534 72.2367,-171.1893 17.0129,-41.866 26.7277,-88.5752 28.0836,-135.14528 1.1554,-37.87033 -3.313,-75.68171 -13.7706,-110.83918"
         style="fill:#100f0d;fill-opacity:1;fill-rule:nonzero;stroke:none;stroke-width:1.17899"
         id="path935" /><path
         d="m 1301.1401,494.64172 c -12.4855,-34.36637 -26.3269,-68.32246 -36.4544,-103.50233 -5.2583,-18.50071 -10.8703,-38.34075 -10.7288,-57.71155 -10.4694,3.44029 -20.255,8.08787 -28.5551,14.45206 9.1136,52.38251 45.0256,106.38142 62.3685,150.39547 3.1715,8.23878 16.4705,4.8539 13.3698,-3.63365"
         style="fill:#5e6061;fill-opacity:1;fill-rule:nonzero;stroke:none;stroke-width:1.17899"
         id="path937" /><path
         d="m 1400.7058,486.81205 c -22.0589,-36.40602 -32.3279,-86.70173 -39.284,-128.20099 -1.8156,-11.00233 -3.5016,-22.35482 -4.3151,-33.55523 -3.9142,-0.0696 -7.8285,-0.14265 -11.7427,-0.25819 -4.657,-0.15209 -9.5852,-0.28532 -14.7256,-0.28532 0.4127,5.87137 0.955,11.13084 1.5563,15.52965 7.015,53.86922 25.5251,109.03298 58.525,152.55892 4.3859,5.81242 13.9828,0.7463 9.9861,-5.78884"
         style="fill:#5e6061;fill-opacity:1;fill-rule:nonzero;stroke:none;stroke-width:1.17899"
         id="path939" /><path
         d="m 2971.6861,373.92378 c -1.5681,-1.48317 -3.1715,-2.95691 -4.9282,-4.44361 -7.5102,-6.35594 -15.7985,-11.69322 -24.6527,-16.19814 -28.0128,-14.39665 -61.6376,-20.60874 -93.2935,-23.36758 -9.5734,-0.81468 -18.9699,-1.3582 -28.0128,-1.68595 -1.2025,-0.0601 -2.4994,-0.0601 -3.702,-0.0601 l -2.4287,-0.0684 c -69.3364,-1.70011 -150.274,14.70907 -210.0252,49.60953 -54.6816,31.79617 -95.9934,81.75115 -128.2623,136.29357 -10.7996,18.15409 -20.5262,36.86583 -29.4394,55.56343 -37.5273,78.70702 -62.3096,162.41762 -92.9634,243.83862 -18.4158,48.9281 -37.987,97.5379 -59.3857,145.4048 113.466,86.26675 293.5803,165.51845 524.0492,76.22175 19.1114,-85.93655 34.2379,-172.47445 48.5508,-259.43675 7.9464,-48.5979 18.2154,-96.795 31.5733,-144.1998 5.9421,-21.0603 15.9989,-39.95718 27.6827,-58.04288 13.4405,-21.12868 28.8853,-40.9699 42.4083,-61.85098 28.3311,-43.79712 43.5283,-98.1509 2.8296,-137.5775"
         style="fill:#100f0d;fill-opacity:1;fill-rule:nonzero;stroke:none;stroke-width:1.17899"
         id="path941" /><path
         d="m 2848.8117,329.91445 c -9.5734,-0.81468 -18.9699,-1.3582 -28.0128,-1.68595 -1.2025,-0.0601 -2.4994,-0.0601 -3.702,-0.0601 -1.2379,5.72989 -2.5702,11.4586 -4.3269,17.07295 -7.1564,22.4008 -15.0675,44.75563 -25.7255,65.73811 -22.2829,44.08243 -50.4254,87.16625 -85.9248,121.73069 -5.612,5.44811 2.7588,13.64091 8.5005,8.5017 41.7834,-37.25372 79.0513,-76.08257 104.7061,-126.57634 12.0846,-23.83682 27.7416,-54.68037 34.4854,-84.72103"
         style="fill:#5e6061;fill-opacity:1;fill-rule:nonzero;stroke:none;stroke-width:1.17899"
         id="path943" /><path
         d="m 2971.6861,373.92378 c -1.5681,-1.48317 -3.1715,-2.95691 -4.9282,-4.44361 -7.5102,-6.35594 -15.7985,-11.69322 -24.6527,-16.19814 -5.6592,24.28483 -8.4887,50.41124 -17.3429,72.8262 -17.0836,43.55306 -40.1682,76.15094 -75.8798,105.86031 -6.0718,5.04725 0.7427,12.75667 6.8853,11.80404 45.3675,-7.02795 74.465,-61.82858 90.9355,-99.15539 8.1704,-18.50896 19.5005,-44.83816 24.9828,-70.69341"
         style="fill:#5e6061;fill-opacity:1;fill-rule:nonzero;stroke:none;stroke-width:1.17899"
         id="path945" /><path
         d="m 3346.3336,3573.9155 c -5.2583,28.8145 -14.0299,57.0395 -25.0889,83.4371 -23.8391,56.9805 -70.3385,135.2772 -140.0168,136.5623 -44.1532,0.8135 -80.4778,-29.7694 -119.1605,-46.3107 -38.0696,-16.2582 -79.794,-23.7566 -115.5056,-45.5561 -2.0161,-1.2262 -4.0557,-2.4288 -6.0129,-3.6549 -173.0049,-104.9065 -322.0764,-161.8753 -448.6409,-190.3597 -33.6248,-7.6281 -65.6108,-13.2283 -96.0641,-17.1543 -166.9332,-21.6698 -287.3198,5.7417 -365.6165,22.1414 -51.3804,10.7406 -84.6633,16.7417 -101.2045,1.014 -35.9828,-34.2261 -38.5412,-90.6644 -25.2422,-156.2869 27.0696,-134.1219 120.1626,-306.8911 129.0758,-407.4707 0.1297,-1.2733 0.2712,-2.4876 0.3301,-3.702 5.5413,-80.3364 30.3944,-153.1154 66.3654,-224.5386 41.7126,-82.6236 95.9344,-163.1014 166.8742,-223.5011 18.4394,-15.7277 39.7673,-27.6237 64.4082,-28.3665 3.6431,-0.1415 8.3708,0.8135 12.9689,2.5702 -2.582,-37.6805 -1.9689,-75.6793 0.4008,-113.0887 0.2712,-4.3033 7.015,-4.3033 6.7556,0 -2.4994,38.8241 -3.0536,77.7072 -0.1532,116.4488 2.0986,1.3677 4.0675,2.8414 5.5412,4.5391 3.985,4.3151 5.2701,9.7149 0.8725,15.7396 -1.0847,1.5444 -2.8296,1.7449 -4.1737,1.1907 l -0.2711,-0.1179 0.1297,1.014 c 0.6012,5.7888 27.1285,118.2055 49.3407,166.3318 36.3954,78.9806 87.764,149.9911 148.7885,211.6287 43.823,44.2239 92.2324,83.1777 143.3887,118.347 90.2753,62.1681 189.2868,112.5935 287.1784,159.7885 41.2528,19.9131 82.6353,39.897 122.9332,61.8969 36.7373,19.925 72.5079,41.5241 106.4038,66.0353 59.0556,42.7266 115.2227,93.4821 133.5088,166.4615 10.1983,40.5691 9.656,83.4371 1.8864,124.9612"
         style="fill:#d8571e;fill-opacity:1;fill-rule:nonzero;stroke:none;stroke-width:1.17899"
         id="path947" /><path
         d="m 2459.5801,2765.8594 v 0 c 26.9399,39.5552 57.7233,76.4929 91.4542,110.5657 0.1768,0.1769 0.3537,0.3537 0.5305,0.5306 -0.1768,-0.1769 -0.3537,-0.3537 -0.5305,-0.5306 -33.7309,-34.0728 -64.5143,-71.0105 -91.4542,-110.5657"
         style="fill:#7c9098;fill-opacity:1;fill-rule:nonzero;stroke:none;stroke-width:1.17899"
         id="path949" /><path
         d="m 2775.2546,3046.294 c 56.7919,33.6837 115.706,64.0191 174.5966,92.8454 -58.8906,-28.8263 -117.8047,-59.1735 -174.5966,-92.8454 m 175.1389,93.1048 c 0.1179,0.059 0.224,0.1179 0.3419,0.1768 -0.1061,-0.059 -0.2358,-0.1179 -0.3419,-0.1768"
         style="fill:#7c9098;fill-opacity:1;fill-rule:nonzero;stroke:none;stroke-width:1.17899"
         id="path951" /><path
         d="m 2398.6145,2661.1534 c -23.5562,0 -60.0224,405.9026 266.9115,546.0609 333.5598,142.9761 555.0448,278.9372 680.8076,366.7012 3.7374,-19.9486 5.8007,-40.2036 5.8007,-60.3761 0.012,-21.8113 -2.3816,-43.5047 -7.6871,-64.5851 -18.2861,-72.9794 -74.4532,-123.7349 -133.5088,-166.4615 -33.8959,-24.5112 -69.6665,-46.1103 -106.4038,-66.0353 -40.2979,-21.9999 -81.6804,-41.9838 -122.9332,-61.8969 v 0 c -10.2808,-4.9636 -20.5734,-9.9507 -30.866,-14.985 -0.1179,-0.059 -0.224,-0.1179 -0.3419,-0.1768 -0.1886,-0.083 -0.3537,-0.1651 -0.5423,-0.2594 -58.8906,-28.8263 -117.8047,-59.1617 -174.5966,-92.8454 -80.8905,-47.9378 -157.5013,-102.6429 -223.6898,-169.3383 -0.1768,-0.1769 -0.3537,-0.3537 -0.5305,-0.5306 -33.7309,-34.0728 -64.5143,-71.0105 -91.4542,-110.5657 -21.7878,-32.0095 -41.0525,-65.7404 -57.3343,-101.063 v 0 c -1.1318,-2.464 -2.3698,-3.643 -3.6313,-3.643"
         style="fill:#c94e1f;fill-opacity:1;fill-rule:nonzero;stroke:none;stroke-width:1.17899"
         id="path953" /><path
         d="m 1562.4396,2601.6026 c -9.4673,0.059 -18.9346,0.7192 -28.3901,2.0279 -47.8552,6.6023 -98.2098,22.2357 -141.5731,47.6783 39.225,6.4137 72.9087,27.5884 101.8647,56.6269 31.314,24.016 59.539,52.7951 86.8798,81.3503 16.0696,16.7888 32.2689,32.6698 48.6215,47.7844 49.27,45.5916 100.5796,85.0052 158.0318,125.8336 58.4543,41.6301 125.8808,100.0609 191.916,166.3201 25.9142,-67.957 48.8573,-131.4809 53.0663,-178.9471 v 0 0 c -35.7116,-22.7427 -70.1381,-47.0535 -98.3631,-78.6386 -56.3557,-63.0642 -97.4671,-137.3405 -165.1411,-189.8173 -17.2015,4.4683 -34.3676,7.1564 -50.3075,7.1564 -3.9496,0 -7.8167,-0.165 -11.5895,-0.5069 -58.1949,-5.2819 -107.0994,-41.5005 -145.0157,-86.868"
         style="fill:#c94e1f;fill-opacity:1;fill-rule:nonzero;stroke:none;stroke-width:1.17899"
         id="path955" /><path
         d="m 1564.0076,2601.5908 c -0.5187,0 -1.0493,0 -1.568,0.012 37.9163,45.3675 86.8208,81.5861 145.0157,86.868 3.7728,0.3419 7.6399,0.5069 11.5895,0.5069 15.9399,0 33.106,-2.6881 50.3075,-7.1564 -1.8039,-1.3913 -3.6195,-2.7707 -5.4469,-4.1383 -56.509,-41.972 -127.8025,-76.092 -199.8978,-76.092"
         style="fill:#f0e8e2;fill-opacity:1;fill-rule:nonzero;stroke:none;stroke-width:1.17899"
         id="path957" /><path
         d="m 2032.8565,2950.277 v 0 c -4.209,47.4662 -27.1521,110.9901 -53.0663,178.9471 109.7875,110.1412 215.7433,241.9051 270.1537,353.9563 7.7577,-0.2004 15.6452,-0.3065 23.6859,-0.3065 37.5626,0 78.2849,2.3108 122.2141,8.0053 -7.0268,-51.7694 -23.3558,-103.2913 -38.2111,-144.4616 -16.329,-45.1553 -34.8273,-91.4778 -61.1542,-131.9761 -42.3375,-65.0803 -84.6043,-135.8314 -145.6288,-185.5259 -36.3836,-29.628 -78.0255,-53.1134 -117.9933,-78.6386"
         style="fill:#c94e1f;fill-opacity:1;fill-rule:nonzero;stroke:none;stroke-width:1.17899"
         id="path959" /><path
         d="m 1191.7063,2993.7582 c -14.0772,21.9645 -30.7953,42.1842 -50.449,59.8337 -114.5271,102.8786 -286.36481,131.587 -385.23491,252.9405 -6.6613,8.1704 -12.4855,16.5883 -17.8853,25.0889 -43.3632,-22.5541 -86.5968,-45.3322 -128.47805,-70.4329 -71.51398,-42.8563 -143.67995,-97.9151 -174.35726,-178.051 -31.72662,-82.9066 0.0825,-175.9996 51.07855,-243.3435 58.40126,-77.1295 156.06406,-131.0093 240.42666,-174.4433 49.0224,-25.2422 100.4146,-45.6034 152.7617,-62.8048 60.8005,-19.9367 229.19561,-105.7908 277.22771,-147.9868 9.4673,-8.3119 18.9228,276.0722 38.8595,339.9853 13.9474,44.7308 15.4801,96.5239 9.1136,142.5988 -2.6528,19.1586 -6.2251,38.435 -13.0632,56.6151"
         style="fill:#d8571e;fill-opacity:1;fill-rule:nonzero;stroke:none;stroke-width:1.17899"
         id="path961" /><path
         d="m 1891.9436,2306.3836 v -0.6839 0.6839"
         style="fill:#fcd1e3;fill-opacity:1;fill-rule:nonzero;stroke:none;stroke-width:1.17899"
         id="path963" /><path
         d="m 958.61999,3150.7171 c -1.2733,1.9099 -2.4877,3.5723 -4.5981,4.6098 -3.9024,1.8864 -9.1136,2.7471 -12.9571,0 -9.9035,-7.1093 -18.5219,-10.8231 -30.3825,-13.4994 -9.7385,-2.2047 -19.0879,-4.6924 -27.8242,-9.7031 -8.3119,-4.7631 -2.7471,-18.6634 6.5788,-15.6216 10.8585,3.5488 22.9195,1.0375 34.1907,2.5584 12.5798,1.7213 24.8413,5.8832 32.9881,16.1168 3.4662,4.3505 5.4469,10.3869 2.0043,15.5391"
         style="fill:#3a7bb4;fill-opacity:1;fill-rule:nonzero;stroke:none;stroke-width:1.17899"
         id="path965" /><path
         d="m 2357.2202,2496.366 c 4.3976,-6.0129 -3.089,-4.5391 -4.1737,1.2025 1.3441,0.5542 3.1008,0.3537 4.1737,-1.2025"
         style="fill:#bfc8e5;fill-opacity:1;fill-rule:nonzero;stroke:none;stroke-width:1.17899"
         id="path967" /><path
         d="m 3638.1454,3631.4855 c -0.8253,15.6806 -3.537,31.2433 -7.5455,45.509 -1.6506,5.6592 -3.537,10.9646 -5.5413,16.0343 -11.0825,27.7062 -27.1168,50.1071 -46.5701,67.9098 h -0.1179 c -19.9249,18.2743 -43.3868,31.8327 -69.2067,41.6183 -93.4939,35.4876 -216.9341,21.8113 -302.8825,3.0654 -127.6846,-27.8241 -234.8547,-93.2581 -348.3914,-154.8013 -79.2282,-42.9153 -161.4037,-80.525 -246.8805,-109.1745 -12.3794,-4.2444 -117.4274,-26.6452 -119.078,-33.6012 -8.135,-32.8938 -12.851,-63.5476 -15.3268,-78.5207 -18.2744,-113.3009 2.3579,-246.9984 75.2195,-338.6059 41.2647,-51.9934 90.0748,-82.1756 142.6578,-96.2055 90.1927,62.2506 189.2278,112.7114 287.084,159.871 124.0297,59.8926 240.5139,135.4659 367.2553,189.4636 107.8776,45.9806 248.8847,107.7597 284.1365,231.7894 4.716,16.8596 6.3666,36.195 5.1876,55.6483"
         style="fill:#100f0d;fill-opacity:1;fill-rule:nonzero;stroke:none;stroke-width:1.17899"
         id="path969" /><path
         d="m 1326.2526,4576.7641 c -9.6324,41.7717 -32.4576,90.853 -82.6944,80.8552 -55.6601,-11.0825 -102.9729,-75.5025 -136.2676,-116.3074 -106.6161,-130.6674 -211.25141,-274.2802 -270.40131,-433.0665 -35.299,-94.7318 -60.0578,-194.8281 -29.4983,-293.8278 1.3676,-4.3977 5.4705,-5.4705 8.7716,-4.3151 -3.0653,-6.3076 0.5188,-15.2562 8.6892,-14.8199 12.2733,0.6602 18.0857,4.2208 19.807,13.8767 146.1358,123.8529 331.73241,210.9448 436.04941,377.1706 70.3857,112.1691 74.7244,263.7164 45.5444,390.4342"
         style="fill:#100f0d;fill-opacity:1;fill-rule:nonzero;stroke:none;stroke-width:1.17899"
         id="path971" /><path
         d="m 2205.8143,3993.3057 c -125.1616,380.8019 -561.7297,508.7812 -966.0996,330.6005 -79.9944,-35.24 -161.4862,-76.599 -228.3114,-131.9643 -107.00511,-88.6718 -182.80231,-231.6715 -217.98341,-361.1246 -42.3375,-155.9332 9.314,-308.4709 92.48,-442.9818 74.9366,-121.2827 177.48511,-228.4882 245.18271,-353.355 21.6109,-39.8027 39.6376,-81.4093 52.0524,-125.8454 19.0407,-68.0984 8.9839,-138.8968 48.6805,-201.5955 26.4565,-41.8541 72.9087,-61.7201 123.2044,-57.2989 97.2667,8.5006 164.0329,74.6065 226.201,139.5453 16.0696,16.7888 32.2689,32.6698 48.6215,47.7844 49.27,45.5916 100.5796,85.0052 158.0318,125.8336 161.8753,115.3052 392.6861,359.5211 471.9378,541.6986 65.8348,151.3116 -2.9003,333.2887 -53.9977,488.7031"
         style="fill:#d8571e;fill-opacity:1;fill-rule:nonzero;stroke:none;stroke-width:1.17899"
         id="path973" /><path
         d="m 1800.6898,3701.0459 c -4.5273,15.3505 -25.6312,10.6345 -27.3525,-3.537 -14.0536,-116.0479 -35.1103,-265.9683 -145.6878,-338.6766 -62.1328,-40.8637 -143.9193,-0.2829 -180.8334,54.3986 -24.3226,36.03 -27.0579,84.4039 -36.1243,125.3502 -4.5037,20.3494 -14.9967,37.2797 -22.1532,56.0374 l -0.2122,1.6152 c -1.1319,3.3837 -1.9807,6.791 -4.4802,9.4909 -3.6077,3.8671 -11.6602,2.0514 -12.6623,-3.1951 -4.716,-24.3933 11.2711,-59.2914 14.6902,-83.9558 6.5198,-47.0299 12.9924,-94.9912 42.644,-134.6053 23.2379,-31.031 65.7759,-57.2753 103.3031,-69.8787 31.2433,-10.4812 64.0899,-6.1543 93.8712,5.9067 69.3482,28.0954 110.6246,105.2013 137.6942,167.5345 26.0675,60.0695 56.5797,148.0339 37.3032,213.515"
         style="fill:#503325;fill-opacity:1;fill-rule:nonzero;stroke:none;stroke-width:1.17899"
         id="path975" /><path
         d="m 1144.3934,3520.7194 c -2.0986,23.9217 -4.5863,51.5926 -23.6977,69.1478 -8.9367,8.2058 -22.6248,-0.071 -20.1018,-11.1415 11.3655,-49.7415 10.2572,-102.0887 5.1758,-152.4669 -6.3666,-63.1585 -20.314,-134.2752 -58.1242,-187.8367 -11.5777,-16.3997 -30.7363,-31.9742 -52.85411,-28.2839 -32.0332,5.3526 -52.0524,55.7308 -62.3096,79.9355 -26.0675,61.5314 -35.7706,127.5667 -55.9903,190.7369 -2.9003,9.0429 -16.3643,5.2112 -14.6548,-3.8553 14.6666,-77.884 22.8135,-156.2161 58.6665,-228.8301 27.7652,-56.2024 86.87981,-93.9065 141.44341,-43.3279 52.9249,49.0696 68.5111,135.7253 77.3889,202.0789 5.0107,37.5036 8.3709,76.0566 5.0579,113.8432"
         style="fill:#503325;fill-opacity:1;fill-rule:nonzero;stroke:none;stroke-width:1.17899"
         id="path977" /><path
         d="m 1588.1769,3199.6098 c -73.8519,26.0439 -144.662,-73.9463 -175.7756,-122.2495 -39.4961,-61.2721 -64.4082,-138.9439 -60.0931,-212.784 -14.9731,18.345 -32.7287,35.0513 -42.5969,46.7587 -39.8262,47.3954 -78.6386,95.5571 -141.5613,116.3899 -13.8413,4.5627 -26.1264,6.6966 -37.0674,6.7556 21.6109,-39.8027 39.6376,-81.4093 52.0524,-125.8454 19.0407,-68.0984 8.9839,-138.8968 48.6805,-201.5955 26.4565,-41.8541 72.8498,-53.5025 123.2044,-57.2989 150.8871,-11.3654 229.6554,187.931 270.8729,293.7689 24.9592,64.1253 53.5733,223.902 -37.7159,256.1002"
         style="fill:#ffffff;fill-opacity:1;fill-rule:nonzero;stroke:none;stroke-width:1.17899"
         id="path979" /><path
         d="m 1330.2258,2982.3455 c -28.6377,16.164 -63.2175,23.4148 -101.7115,16.8832 -38.6709,-6.5434 -65.0684,-31.6323 -79.3578,-61.3311 -30.8424,-64.1016 -2.5466,-153.7167 44.8842,-206.8655 51.4511,-57.6644 134.841,-54.6344 184.2171,2.1929 68.4993,78.8273 35.523,201.9492 -48.032,249.1205"
         style="fill:#100f0d;fill-opacity:1;fill-rule:nonzero;stroke:none;stroke-width:1.17899"
         id="path981" /><path
         d="m 1280.5549,2957.6339 c -3.8553,2.9711 -11.1414,3.2069 -13.9356,-1.0611 l -1.9336,-0.4716 c -25.926,-10.9646 -43.3868,-37.2914 -40.8638,-64.5261 1.7331,-18.7105 9.5263,-47.3718 34.0139,-47.584 22.8606,-0.1886 37.8338,28.6966 42.2786,46.1574 6.3193,24.8296 2.0632,50.7791 -19.5595,67.4854"
         style="fill:#ffffff;fill-opacity:1;fill-rule:nonzero;stroke:none;stroke-width:1.17899"
         id="path983" /><path
         d="m 1013.8321,3884.5203 c -12.1436,12.2497 -29.65161,16.2701 -49.67091,3.5488 -17.9088,-11.3537 -30.6301,-31.4319 -32.8113,-52.4415 -0.9078,-8.7363 1.8864,-19.3472 3.5252,-27.9185 1.4502,-7.5691 4.1736,-15.2915 8.4298,-21.7523 7.3687,-11.1415 19.3944,-16.3644 32.5047,-14.1597 65.52831,11.0235 66.28291,84.1917 38.02251,112.7232"
         style="fill:#ffffff;fill-opacity:1;fill-rule:nonzero;stroke:none;stroke-width:1.17899"
         id="path985" /><path
         d="m 1439.1055,3965.5169 c -12.1436,12.2497 -29.6516,16.2701 -49.6709,3.5606 -17.9088,-11.3655 -30.6183,-31.4319 -32.7995,-52.4533 -0.9078,-8.7245 1.8864,-19.3472 3.5134,-27.9185 1.4502,-7.5691 4.1736,-15.2915 8.4416,-21.7523 7.3569,-11.1415 19.3826,-16.3644 32.4929,-14.1479 65.5283,11.0235 66.2829,84.1799 38.0225,112.7114"
         style="fill:#ffffff;fill-opacity:1;fill-rule:nonzero;stroke:none;stroke-width:1.17899"
         id="path987" /><path
         d="m 2186.3374,4016.5907 c 23.4029,49.7416 39.7555,102.301 47.8434,156.3459 10.3279,69.3128 1.5916,137.5173 -10.5284,205.9813 -25.9378,145.7113 -61.4489,290.8096 -135.5838,421.8071 -1.179,2.1458 -3.1008,3.5252 -5.3408,4.3034 -4.044,1.4501 -9.0665,0.8017 -12.5327,-1.3677 -73.3332,-45.4029 -118.0404,-128.5688 -164.6459,-196.6201 -50.0717,-73.1327 -100.8744,-146.4305 -161.8635,-211.8762 -32.6227,-35.016 -110.7072,-48.7395 -107.7715,-95.4628 9.5852,-152.0544 147.6685,-229.8795 182.826,-259.3306 108.302,-14.9143 256.1827,-50.8145 367.5972,-23.7803"
         style="fill:#100f0d;fill-opacity:1;fill-rule:nonzero;stroke:none;stroke-width:1.17899"
         id="path989" /><path
         d="m 2234.1572,4172.9012 c -8.0996,-53.9977 -24.4287,-106.5925 -47.7844,-156.3458 -24.1104,-5.8714 -49.9538,-8.7717 -76.7641,-9.5145 -54.2689,-1.6152 -112.3341,5.3408 -167.8881,13.8414 -38.6827,5.9303 -76.0802,12.6269 -110.1059,17.6259 1.3559,2.6173 2.5702,5.2583 3.985,7.6988 33.6838,58.9966 78.9216,110.2237 111.1788,170.305 39.7555,74.1231 73.0502,151.8303 93.3642,232.9095 20.7973,82.9655 27.3407,167.275 34.8391,251.9972 3.03,34.2968 6.8735,68.9945 7.7578,103.6332 2.24,-0.8135 4.1146,-2.1693 5.3408,-4.3269 74.1113,-130.9621 109.6225,-276.0958 135.5484,-421.7835 12.1554,-68.4522 20.8564,-136.7039 10.5284,-206.0403"
         style="fill:#ffffff;fill-opacity:1;fill-rule:nonzero;stroke:none;stroke-width:1.17899"
         id="path991" /><path
         d="m 2093.5155,4006.8051 c -49.5647,0 -101.6996,6.4137 -151.7949,14.0772 113.5485,124.8314 166.2611,268.9511 197.5279,438.8671 8.8425,-138.8614 41.0525,-324.5877 -29.6398,-452.7085 v 0 c -5.329,-0.165 -10.6934,-0.2358 -16.0932,-0.2358"
         style="fill:#f0e8e2;fill-opacity:1;fill-rule:nonzero;stroke:none;stroke-width:1.17899"
         id="path993" /><path
         d="m 3578.3706,3760.9386 c -20.8681,1.6506 -41.972,2.0043 -63.3117,0.8253 -103.3974,-5.895 -198.7777,-39.2604 -300.2887,-53.5261 -8.8425,-1.179 -16.6238,11.5541 -6.7203,15.7984 96.0877,41.7363 195.9481,72.7437 301.114,78.5207 25.8199,-9.7856 49.2818,-23.344 69.2067,-41.6183"
         style="fill:#5e6061;fill-opacity:1;fill-rule:nonzero;stroke:none;stroke-width:1.17899"
         id="path995" /><path
         d="m 3638.1454,3631.4855 c -38.3172,3.4191 -76.7522,5.6592 -115.541,4.0086 -93.9655,-4.0086 -186.8699,-17.6849 -278.3595,-39.2604 -11.0825,-2.5937 -14.8553,12.7331 -4.716,16.7417 114.3621,44.4479 257.3735,72.9795 391.071,64.0191 4.0085,-14.2657 6.7202,-29.8284 7.5455,-45.509"
         style="fill:#5e6061;fill-opacity:1;fill-rule:nonzero;stroke:none;stroke-width:1.17899"
         id="path997" /><path
         d="m 1064.057,3013.1879 c 21.1865,9.0665 42.6323,17.8617 64.2196,26.433 0.9432,-1.7096 1.8746,-3.4309 2.806,-5.1404 v 0 0 c 2.7588,-5.0697 5.4469,-10.1747 8.0761,-15.3033 -27.6355,-2.6174 -53.0428,-4.5627 -75.1017,-5.9893"
         style="fill:#9e3e1e;fill-opacity:1;fill-rule:nonzero;stroke:none;stroke-width:1.17899"
         id="path999" /><path
         d="m 1179.9753,3023.3862 c -3.8435,1.5445 -7.7931,2.9946 -11.8253,4.3387 -13.8413,4.5627 -26.1264,6.6966 -37.0674,6.7556 v 0 c -0.9314,1.7095 -1.8628,3.4308 -2.806,5.1404 101.2399,40.1682 206.0638,75.4435 307.0679,111.8389 2.4994,0.8725 4.9989,1.8157 7.5691,2.6999 17.2368,6.3312 34.4383,13.075 51.2153,20.6088 -35.24,-28.2604 -64.5379,-70.7158 -81.7276,-97.4082 -3.3365,-5.1639 -6.5669,-10.4576 -9.6795,-15.8456 -74.1584,-18.3922 -153.2215,-30.3708 -222.7465,-38.1285 m 450.3387,142.1861 c -9.7031,15.4448 -23.3793,27.4351 -42.1371,34.0375 -8.2765,2.9239 -16.5294,4.2561 -24.688,4.2561 -6.0482,0 -12.0493,-0.7309 -17.9914,-2.0986 30.9839,19.2765 58.584,43.2454 79.6172,74.8423 12.3086,18.4748 22.2829,38.2346 29.2036,58.6312 3.4662,2.3108 6.8617,4.7631 10.1628,7.3215 5.2583,-22.6248 8.5949,-49.0342 9.3494,-79.8648 0.9197,-37.6923 -15.3622,-69.7962 -43.5165,-97.1252"
         style="fill:#9e3e1e;fill-opacity:1;fill-rule:nonzero;stroke:none;stroke-width:1.17899"
         id="path1001" /><path
         d="m 1654.3183,3335.2408 c 1.8863,5.553 3.5369,11.1414 4.9517,16.777 v 0 0 c 0.4716,1.8156 0.9078,3.6431 1.3087,5.4705 1.3912,-4.7749 2.6999,-9.762 3.9024,-14.926 -3.3011,-2.5584 -6.6966,-5.0107 -10.1628,-7.3215"
         style="fill:#38221a;fill-opacity:1;fill-rule:nonzero;stroke:none;stroke-width:1.17899"
         id="path1003" /><path
         d="m 1139.1587,3019.1772 c -2.6292,5.1286 -5.3173,10.2336 -8.0761,15.3033 v 0 c 10.941,-0.059 23.2261,-2.1929 37.0674,-6.7556 4.0322,-1.3441 7.9818,-2.7942 11.8253,-4.3387 -14.0418,-1.5681 -27.6709,-2.9711 -40.8166,-4.209 m 263.5631,42.3375 c 3.1126,5.388 6.343,10.6817 9.6795,15.8456 17.1897,26.6924 46.4876,69.1478 81.7276,97.4082 17.7556,7.9817 35.0396,16.8359 51.3686,26.9988 5.9421,1.3677 11.9432,2.0986 17.9914,2.0986 8.1586,0 16.4115,-1.3322 24.688,-4.2561 18.7578,-6.6024 32.434,-18.5927 42.1371,-34.0375 -49.1638,-47.7608 -134.5109,-80.973 -227.5922,-104.0576"
         style="fill:#beb8b1;fill-opacity:1;fill-rule:nonzero;stroke:none;stroke-width:1.17899"
         id="path1005" /><path
         d="m 1659.27,3352.0178 c -6.6141,-26.3269 -18.4983,-51.9109 -34.1553,-75.4082 -42.6087,-63.9956 -112.1337,-96.7361 -182.2011,-122.4499 -2.5702,-0.8842 -5.0697,-1.8274 -7.5691,-2.6999 -138.661,-49.9655 -284.5374,-97.8207 -418.4117,-159.1282 -20.58521,-9.373 -40.76951,-19.5712 -60.61191,-30.3708 -30.5829,-16.612 -60.3524,-34.8391 -89.3202,-54.2807 -41.3118,-27.7416 -80.8669,-57.9827 -118.8186,-89.9923 -32.8702,-27.7416 -71.7498,-63.7126 -108.34445,-104.8239 -58.2586,34.5561 -114.56008,75.5968 -153.44316,126.9654 -51.03257,67.3085 -82.7639,160.4015 -51.10685,243.3081 30.65374,80.1241 102.81616,135.2183 174.37612,178.0864 33.14494,19.8542 67.10574,38.27 101.32124,56.226 43.823,23.0964 88.1059,45.4383 131.5045,69.2657 93.3642,51.2389 188.28471,101.4638 288.59311,137.8474 53.0663,19.1704 108.4199,35.6409 164.7874,45.509 47.3364,8.2294 95.3213,11.8017 143.1883,8.2294 74.7951,-5.6002 159.8592,-23.0139 202.0553,-92.6922 25.643,-42.3257 29.3568,-89.0373 18.1564,-133.5913"
         style="fill:#d8571e;fill-opacity:1;fill-rule:nonzero;stroke:none;stroke-width:1.17899"
         id="path1007" /><path
         d="m 1664.8702,3410.7551 c -1.7567,25.584 -9.2433,50.9559 -23.7566,74.854 -4.1854,6.8971 -8.7835,13.299 -13.7706,19.1704 -8.1115,9.6677 -17.1543,18.0267 -27.0107,25.3247 -45.0256,33.4833 -105.9912,44.0824 -161.274,48.1971 -47.867,3.5723 -95.8519,0 -143.1883,-8.2294 -56.3675,-9.8681 -111.7211,-26.3386 -164.7874,-45.509 -100.3084,-36.3836 -195.22891,-86.6085 -288.59311,-137.8474 -43.3986,-23.8274 -87.6815,-46.1693 -131.5045,-69.2657 -27.3349,-119.8915 15.3976,-257.1259 127.3309,-317.891 36.3128,-19.7127 76.6815,-31.3258 118.005,-37.598 19.8424,10.7996 40.0267,20.9978 60.61191,30.3708 133.8743,61.3075 279.7507,109.1627 418.4117,159.1282 2.4994,0.8725 4.9989,1.8157 7.5691,2.6999 70.0674,25.7138 139.5924,58.4543 182.2011,122.4499 15.657,23.4973 27.5412,49.0813 34.1553,75.4082 2.4287,9.5144 4.1147,19.1704 5.0579,28.8263 1.0139,9.986 1.2261,19.9839 0.5423,29.911"
         style="fill:#100f0d;fill-opacity:1;fill-rule:nonzero;stroke:none;stroke-width:1.17899"
         id="path1009" /><path
         d="m 985.28869,2977.1462 c 10.4459,5.2583 20.98601,10.3397 31.64411,15.1854 15.5627,7.1329 31.2668,14.0653 47.1242,20.8563 v 0 c -15.8574,-6.791 -31.5615,-13.7234 -47.1242,-20.8563 -10.6463,-4.8574 -21.18641,-9.9271 -31.64411,-15.1854"
         style="fill:#c94e1f;fill-opacity:1;fill-rule:nonzero;stroke:none;stroke-width:1.17899"
         id="path1011" /><path
         d="m 867.00069,2907.6801 c 4.0085,17.5788 11.9785,41.0053 27.6591,68.2871 20.031,-6.2722 40.6987,-10.8231 61.614,-14.0064 -30.583,-16.6355 -60.3407,-34.8391 -89.2731,-54.2807 v 0"
         style="fill:#c94e1f;fill-opacity:1;fill-rule:nonzero;stroke:none;stroke-width:1.17899"
         id="path1013" /><path
         d="m 956.27379,2961.9608 c -20.9153,3.1833 -41.583,7.7342 -61.614,14.0064 61.3782,106.7222 240.97371,272.2759 764.61021,376.0506 -6.6141,-26.3269 -18.4983,-51.9109 -34.1553,-75.4082 -21.0332,-31.5969 -48.6333,-55.5658 -79.6172,-74.8423 -16.329,-10.1629 -33.613,-19.0171 -51.3686,-26.9988 -16.777,-7.5338 -33.9785,-14.2776 -51.2153,-20.6088 -2.5702,-0.8842 -5.0697,-1.8274 -7.5691,-2.6999 -101.0041,-36.3954 -205.828,-71.6707 -307.0679,-111.8389 -21.5873,-8.5713 -43.0331,-17.3665 -64.2196,-26.433 -15.8574,-6.791 -31.5615,-13.7234 -47.1242,-20.8563 -10.6581,-4.8457 -21.19821,-9.9271 -31.64411,-15.1854 -9.7502,-4.9046 -19.4297,-9.9625 -29.0149,-15.1854"
         style="fill:#100f0d;fill-opacity:1;fill-rule:nonzero;stroke:none;stroke-width:1.17899"
         id="path1015" /><path
         d="m 1627.343,3504.7795 c -32.4694,-0.2004 -64.8798,-2.6174 -97.078,-6.6023 -77.8369,-9.6678 -153.8464,-30.4534 -227.4979,-57.2518 -6.2133,-2.2283 -10.3987,7.7578 -4.4566,10.5991 78.0373,37.4565 156.2044,61.7083 242.2117,72.0952 18.4983,2.2991 38.7416,4.7867 59.8101,6.4845 9.8564,-7.298 18.8992,-15.657 27.0107,-25.3247"
         style="fill:#5e6061;fill-opacity:1;fill-rule:nonzero;stroke:none;stroke-width:1.17899"
         id="path1017" /><path
         d="m 1664.3279,3380.8441 c -33.2711,2.1575 -66.6247,2.1575 -99.9784,-0.2594 -71.824,-5.2819 -133.1197,-26.4801 -200.9705,-47.2657 -5.1287,-1.5563 -9.1136,5.329 -5.1876,8.9721 48.598,45.4972 132.8486,58.4661 196.3018,65.3514 36.5958,3.985 73.6515,5.4587 110.377,3.1126 0.6838,-9.9271 0.4716,-19.925 -0.5423,-29.911"
         style="fill:#5e6061;fill-opacity:1;fill-rule:nonzero;stroke:none;stroke-width:1.17899"
         id="path1019" /></g></g></svg>
